# xmcd
#
# Track frame offsets:
#	150
#	20840
#	40980
#	61310
#	91525
#
# Disc length: 1396 seconds
#
# Revision: 1
# Processed by: cddbd v1.5PL3 Copyright (c) Steve Scherf et al.
# Submitted via: EasyCDDAExtractor 6.5.0.1
#
DISCID=36057205
DTITLE=Blu Max - Strong Emotion
DYEAR=1900
DGENRE=
TTITLE0=Strong Emotion(90's Radiola Mix)
TTITLE1=Strong Emotion(EFX Single Mix)
TTITLE2=Strong Emotion(Sampapella)
TTITLE3=Strong Emotion(Club ''Al EFX'' Mix)
TTITLE4=Strong Emotion(Townsend Groove Mix)
EXTD=
EXTT0=
EXTT1=
EXTT2=
EXTT3=
EXTT4=
PLAYORDER=
